<svg width="16" height="20" viewBox="0 0 16 20" fill="none" xmlns="http://www.w3.org/2000/svg">
<path d="M8 14.6479C8.62229 14.6479 9.12676 14.1434 9.12676 13.5211C9.12676 12.8988 8.62229 12.3944 8 12.3944C7.37771 12.3944 6.87324 12.8988 6.87324 13.5211C6.87324 14.1434 7.37771 14.6479 8 14.6479Z" fill="black" fill-opacity="0.08"/>
<path d="M3.38028 19.8297H12.6197C14.4836 19.8297 16 18.3133 16 16.4494V10.3649C16 8.50101 14.4836 6.98462 12.6197 6.98462H12.393V4.30389C12.393 1.9307 10.4217 0 7.99865 0C5.57561 0 3.60428 1.9307 3.60428 4.30389V6.98462H3.38028C1.51639 6.98462 0 8.50101 0 10.3649V16.4494C0 18.3133 1.51639 19.8297 3.38028 19.8297ZM5.8578 4.30389C5.8578 3.1733 6.8182 2.25352 7.99865 2.25352C9.1791 2.25352 10.1395 3.1733 10.1395 4.30389V6.98462H5.8578V4.30389ZM2.25352 10.3649C2.25352 9.74361 2.75899 9.23814 3.38028 9.23814H12.6197C13.241 9.23814 13.7465 9.74361 13.7465 10.3649V16.4494C13.7465 17.0707 13.241 17.5762 12.6197 17.5762H3.38028C2.75899 17.5762 2.25352 17.0707 2.25352 16.4494V10.3649Z" fill="black" fill-opacity="0.08"/>
</svg>
