<svg width="16" height="22" viewBox="0 0 16 22" fill="none" xmlns="http://www.w3.org/2000/svg">
<path d="M13.093 10.9109C13.6718 10.9109 14.2268 11.1408 14.6361 11.55C15.0453 11.9592 15.2752 12.5143 15.2752 13.093V19.6396C15.2752 20.2183 15.0453 20.7734 14.6361 21.1826C14.2268 21.5918 13.6718 21.8217 13.093 21.8217H2.18217C1.60342 21.8217 1.04838 21.5918 0.639144 21.1826C0.229907 20.7734 0 20.2183 0 19.6396V13.093C0 12.5143 0.229907 11.9592 0.639144 11.55C1.04838 11.1408 1.60342 10.9109 2.18217 10.9109V5.45543C2.18217 4.00856 2.75694 2.62095 3.78003 1.59786C4.80312 0.574767 6.19074 0 7.63761 0C9.08448 0 10.4721 0.574767 11.4952 1.59786C12.5183 2.62095 13.093 4.00856 13.093 5.45543V10.9109ZM7.63761 18.5485C8.21635 18.5485 8.7714 18.3186 9.18064 17.9093C9.58987 17.5001 9.81978 16.945 9.81978 16.3663C9.81978 15.7876 9.58987 15.2325 9.18064 14.8233C8.7714 14.414 8.21635 14.1841 7.63761 14.1841C7.05886 14.1841 6.50381 14.414 6.09458 14.8233C5.68534 15.2325 5.45543 15.7876 5.45543 16.3663C5.45543 16.945 5.68534 17.5001 6.09458 17.9093C6.50381 18.3186 7.05886 18.5485 7.63761 18.5485ZM10.9109 10.9109V5.45543C10.9109 4.58731 10.566 3.75474 9.95215 3.14089C9.3383 2.52703 8.50573 2.18217 7.63761 2.18217C6.76948 2.18217 5.93692 2.52703 5.32306 3.14089C4.70921 3.75474 4.36435 4.58731 4.36435 5.45543V10.9109H10.9109Z" fill="url(#paint0_linear)"/>
<defs>
<linearGradient id="paint0_linear" x1="7.63761" y1="0" x2="7.63761" y2="21.8217" gradientUnits="userSpaceOnUse">
<stop stop-color="#FFD5B7"/>
<stop offset="1" stop-color="#FFAB6D"/>
</linearGradient>
</defs>
</svg>
